Coordinates
version=1
nRows=13
nColumns=63
inDegrees=yes

Units are S.I. units (second, meters, Newtons, ...)
If the header above contains a line with 'inDegrees', this indicates whether rotational values are in degrees (yes) or radians (no).

endheader
time	pelvis_tilt	pelvis_list	pelvis_rotation	pelvis_tx	pelvis_ty	pelvis_tz	hip_flexion_r	hip_adduction_r	hip_rotation_r	knee_angle_r	knee_angle_r_beta	ankle_angle_r	subtalar_angle_r	mtp_angle_r	hip_flexion_l	hip_adduction_l	hip_rotation_l	knee_angle_l	knee_angle_l_beta	ankle_angle_l	subtalar_angle_l	mtp_angle_l	L5_S1_Flex_Ext	L5_S1_Lat_Bending	L5_S1_axial_rotation	L4_L5_Flex_Ext	L4_L5_Lat_Bending	L4_L5_axial_rotation	L3_L4_Flex_Ext	L3_L4_Lat_Bending	L3_L4_axial_rotation	L2_L3_Flex_Ext	L2_L3_Lat_Bending	L2_L3_axial_rotation	L1_L2_Flex_Ext	L1_L2_Lat_Bending	L1_L2_axial_rotation	L1_T12_Flex_Ext	L1_T12_Lat_Bending	L1_T12_axial_rotation	Abs_r3	Abs_r2	Abs_r1	Abs_t1	Abs_t2	neck_flexion	neck_bending	neck_rotation	arm_flex_r	arm_add_r	arm_rot_r	elbow_flex_r	pro_sup_r	wrist_flex_r	wrist_dev_r	arm_flex_l	arm_add_l	arm_rot_l	elbow_flex_l	pro_sup_l	wrist_flex_l	wrist_dev_l
1.288462	2.837312	-3.287141	115.608046	0.314981	0.559406	0.953173	6.383022	-4.276839	-13.781594	12.162182	0.212270	34.267545	17.221737	0.000000	5.528469	3.140405	1.859945	8.226750	0.143584	25.798414	0.768204	0.000000	-0.065415	0.092480	-0.580465	-0.121482	0.122998	-0.616744	-0.107470	0.224856	-0.616744	-0.074763	0.224856	-0.507907	-0.060744	0.188585	-0.471628	-0.037378	0.143251	-0.435349	-0.467252	1.046151	-3.228372	0.000000	0.000000	18.940910	1.504330	12.782200	-0.522419	-17.747673	84.919251	10.393448	37.310960	-1.288143	-0.766163	5.187985	-14.651975	103.362868	12.820391	41.922068	-16.013578	-7.591017
1.307692	2.894249	-3.260204	115.665588	0.314712	0.559235	0.953189	6.417578	-4.235945	-13.914743	12.273904	0.214220	34.357881	17.251801	0.000000	5.543798	3.085279	1.873451	8.329218	0.145372	25.812683	0.855113	0.000000	-0.070105	0.104722	-0.612315	-0.130193	0.139280	-0.650584	-0.115176	0.254620	-0.650584	-0.080123	0.254620	-0.535775	-0.065100	0.213548	-0.497506	-0.040058	0.162214	-0.459236	-0.500756	1.184631	-3.405510	0.000000	0.000000	18.944745	1.501850	13.225444	-1.152742	-18.212038	74.669107	12.564675	45.347677	-2.205834	0.599012	4.292687	-15.147841	90.162875	16.041224	50.651409	-16.583726	-7.349766
1.326923	2.943281	-3.245926	115.700906	0.314482	0.559043	0.953208	6.432912	-4.196695	-14.009772	12.325690	0.215124	34.410236	17.268294	0.000000	5.586314	3.032983	1.749559	8.464971	0.147742	25.866203	1.081930	0.000000	-0.077763	0.114909	-0.645630	-0.144413	0.152829	-0.685982	-0.127756	0.279389	-0.685982	-0.088875	0.279389	-0.564926	-0.072210	0.234322	-0.524574	-0.044434	0.177994	-0.484222	-0.555452	1.299871	-3.590800	0.000000	0.000000	19.066789	1.488043	13.569754	-1.750172	-18.667926	64.738569	14.692063	52.996032	-3.185902	1.905175	3.396274	-15.667646	76.748203	19.218138	59.351016	-17.283855	-7.480692
1.346154	2.990098	-3.255734	115.732372	0.314249	0.558818	0.953266	6.448026	-4.165753	-14.097865	12.333794	0.215265	34.437392	17.278399	0.000000	5.652014	2.999825	1.674031	8.584859	0.149834	25.909949	1.228066	0.000000	-0.085330	0.123651	-0.681075	-0.158467	0.164456	-0.723642	-0.140189	0.300646	-0.723642	-0.097524	0.300646	-0.595941	-0.079238	0.252150	-0.553374	-0.048758	0.191536	-0.510806	-0.609505	1.398770	-3.787936	0.000000	0.000000	19.274402	1.452209	13.848011	-2.312763	-19.106080	55.353734	16.721444	60.035260	-4.161824	3.091939	2.522452	-16.155910	64.122157	22.176084	67.456113	-18.068066	-7.851393
1.365385	3.029377	-3.281582	115.783624	0.314028	0.558593	0.953347	6.439135	-4.140932	-14.200283	12.277178	0.214277	34.436337	17.289198	0.000000	5.735547	2.978740	1.558981	8.694440	0.151747	25.975388	1.447426	0.000000	-0.092401	0.129989	-0.722146	-0.171599	0.172886	-0.767280	-0.151806	0.316056	-0.767280	-0.105606	0.316056	-0.631877	-0.085804	0.265074	-0.586743	-0.052798	0.201354	-0.541609	-0.660014	1.470466	-4.016357	0.000000	0.000000	19.521924	1.444468	14.104912	-2.829093	-19.491869	46.779158	18.591532	66.246698	-5.115376	4.069029	1.711637	-16.604188	52.616637	24.853916	74.879058	-18.988788	-8.408817
1.384615	3.051459	-3.320711	115.869597	0.313796	0.558387	0.953451	6.395324	-4.131446	-14.335833	12.154106	0.212129	34.412366	17.307452	0.000000	5.826004	2.978974	1.411026	8.781954	0.153274	26.059205	1.746881	0.000000	-0.098806	0.133402	-0.772677	-0.183492	0.177425	-0.820969	-0.162328	0.324353	-0.820969	-0.112925	0.324353	-0.676092	-0.091751	0.272033	-0.627800	-0.056457	0.206640	-0.579508	-0.705758	1.509069	-4.297398	0.000000	0.000000	19.791109	1.516438	14.423004	-3.283767	-19.802810	39.256346	20.248853	71.528790	-6.015268	4.799768	0.989602	-16.983157	42.632231	27.164388	81.496464	-19.968270	-9.062106
1.403846	3.054702	-3.373417	115.974560	0.313551	0.558211	0.953553	6.320012	-4.139248	-14.489003	11.969635	0.208910	34.365864	17.339986	0.000000	5.913682	3.004002	1.240962	8.831276	0.154135	26.146474	2.078973	0.000000	-0.102210	0.133769	-0.824998	-0.189814	0.177913	-0.876560	-0.167921	0.325247	-0.876560	-0.116816	0.325247	-0.721873	-0.094912	0.272783	-0.670311	-0.058403	0.207209	-0.618748	-0.730075	1.513227	-4.588390	0.000000	0.000000	20.042097	1.623893	14.732511	-3.663449	-20.038585	33.224829	21.632737	75.509374	-6.865662	5.188734	0.432107	-17.259435	34.992288	28.965417	86.929945	-21.044099	-9.711617
1.423077	3.026533	-3.433089	116.110976	0.313324	0.558019	0.953648	6.206737	-4.171532	-14.666978	11.735398	0.204821	34.321954	17.379452	0.000000	5.993314	3.055139	0.988460	8.859256	0.154623	26.274693	2.544501	0.000000	-0.104667	0.129517	-0.878189	-0.194378	0.172258	-0.933075	-0.171958	0.314909	-0.933075	-0.119624	0.314909	-0.768415	-0.097194	0.264112	-0.713528	-0.059807	0.200622	-0.658641	-0.747628	1.465127	-4.884222	0.000000	0.000000	20.282209	1.802525	15.056687	-4.195997	-20.154124	27.091196	22.915100	79.889438	-7.728262	5.511196	-0.143538	-17.723273	24.718743	31.134988	95.516367	-22.415498	-9.919931
1.442308	3.001362	-3.495173	116.256269	0.313060	0.557913	0.953717	6.066619	-4.193186	-14.848896	11.438743	0.199644	34.247963	17.429040	0.000000	6.059750	3.107646	0.757452	8.840860	0.154302	26.393033	2.977835	0.000000	-0.103105	0.125585	-0.935777	-0.191477	0.167028	-0.994263	-0.169392	0.305348	-0.994263	-0.117839	0.305348	-0.818805	-0.095744	0.256094	-0.760318	-0.058914	0.194532	-0.701832	-0.736471	1.420646	-5.204509	0.000000	0.000000	20.472416	1.997017	15.382599	-4.445245	-20.196909	24.147849	23.636481	81.453443	-8.492376	5.124440	-0.372179	-17.855611	20.236855	31.968419	99.679274	-23.542537	-10.397315
1.461538	2.967264	-3.544560	116.404266	0.312757	0.557905	0.953741	5.893861	-4.211986	-15.017092	11.107980	0.193871	34.170562	17.484061	0.000000	6.096462	3.163059	0.527853	8.793485	0.153475	26.510607	3.425343	0.000000	-0.099986	0.121483	-0.996177	-0.185685	0.161572	-1.058438	-0.164268	0.295374	-1.058438	-0.114274	0.295374	-0.871655	-0.092847	0.247728	-0.809394	-0.057132	0.188177	-0.747133	-0.714193	1.374240	-5.540437	0.000000	0.000000	20.600039	2.162194	15.641901	-4.510444	-20.242105	23.006681	23.985492	81.503680	-9.294924	4.184601	-0.259631	-17.662444	21.588306	31.452590	99.369841	-24.386205	-11.037220
1.480769	2.925415	-3.587457	116.530815	0.312478	0.558000	0.953685	5.703655	-4.226453	-15.157522	10.751263	0.187645	34.085758	17.550592	0.000000	6.101958	3.223109	0.365332	8.707539	0.151975	26.603849	3.784314	0.000000	-0.095058	0.116416	-1.049997	-0.176533	0.154833	-1.115621	-0.156172	0.283054	-1.115621	-0.108642	0.283054	-0.918747	-0.088271	0.237395	-0.853122	-0.054316	0.180328	-0.787497	-0.678993	1.316920	-5.839766	0.000000	0.000000	20.683032	2.255621	15.756780	-4.228171	-20.093377	26.350295	23.431148	77.763243	-9.731740	2.537498	0.196702	-17.147384	28.899059	29.580557	94.666023	-25.063767	-11.761016
1.500000	2.870916	-3.627611	116.637341	0.312236	0.558185	0.953558	5.504584	-4.244385	-15.262658	10.382202	0.181204	33.995865	17.620563	0.000000	6.082413	3.288669	0.203766	8.593945	0.149993	26.682606	4.157550	0.000000	-0.088461	0.109425	-1.097328	-0.164280	0.145535	-1.165911	-0.145332	0.266055	-1.165911	-0.101102	0.266055	-0.960162	-0.082145	0.223139	-0.891579	-0.050546	0.169499	-0.822996	-0.631865	1.237832	-6.103010	0.000000	0.000000	20.728645	2.278312	15.710746	-3.596036	-19.747478	34.228590	21.971757	70.242588	-9.753616	0.237891	1.001415	-16.325104	41.935443	26.345689	85.699284	-25.283723	-12.733857
1.519231	2.775597	-3.663199	116.690244	0.312125	0.558245	0.953361	5.318999	-4.297413	-15.298559	10.065446	0.175675	33.972356	17.690156	0.000000	6.025156	3.390900	0.146325	8.457941	0.147619	26.771876	4.374439	0.000000	-0.085106	0.095621	-1.133928	-0.158050	0.127175	-1.204798	-0.139820	0.232492	-1.204798	-0.097267	0.232492	-0.992187	-0.079029	0.194989	-0.921316	-0.048629	0.148116	-0.850446	-0.607901	1.081678	-6.306565	0.000000	0.000000	20.821019	2.262188	15.439672	-3.241031	-19.530769	38.114788	21.402012	66.013814	-10.148438	-1.614226	1.422246	-15.780039	50.825325	24.149536	80.464062	-25.219248	-12.586098
